<svg
    xmlns="http://www.w3.org/2000/svg"
    viewBox="0 0 24 24"
    fill="none"
    stroke="currentColor"
    stroke-width="2"
    stroke-linecap="round"
    stroke-linejoin="round"
    width="24"
    height="24"
>
    <path d="M21 11.5a8.38 8.38 0 0 1-2.4 5.9 8.5 8.5 0 0 1-6 2.6 8.38 8.38 0 0 1-5.9-2.4L3 21l2.4-3.7A8.38 8.38 0 0 1 3 11.5 8.5 8.5 0 0 1 5.4 5.6a8.5 8.5 0 0 1 6-2.6 8.5 8.5 0 0 1 6 2.6 8.5 8.5 0 0 1 2.6 6Z"/>
    <path d="M8 10h.01"/>
    <path d="M12 10h.01"/>
    <path d="M16 10h.01"/>
</svg>
